<?xml version="1.0" encoding="utf-8"?>
<!-- Generator: Adobe Illustrator 22.0.1, SVG Export Plug-In . SVG Version: 6.00 Build 0)  -->
<svg version="1.1" id="net_magazine" xmlns="http://www.w3.org/2000/svg" xmlns:xlink="http://www.w3.org/1999/xlink" x="0px"
	 y="0px" viewBox="0 0 59 135" style="enable-background:new 0 0 59 135;" xml:space="preserve">
<style type="text/css">
	.st0{fill:#DAD9D9;}
</style>
<path class="st0" d="M32.2,62.1c-1.9,0-2.7,1.5-2.9,3.3h5.6C34.7,63.7,34.1,62.1,32.2,62.1z"/>
<path class="st0" d="M58.6,64.2l-5,5l0,0l0.1-1l0.1-1l0-1l0-1.1l0-1.1l0-1l-0.1-1l-0.1-1l-0.2-1l-0.2-1L53,58l-0.3-1l-0.3-0.9
	L52,55.2l-0.4-0.9l-0.4-0.9l-0.5-0.9l-0.5-0.9l-0.5-0.8l-0.6-0.8l-0.6-0.8l-0.6-0.8l-0.6-0.7l-0.7-0.7l-0.7-0.7l-0.7-0.6l-0.8-0.6
	l-0.8-0.6l-0.8-0.6L42,43.6l-0.9-0.5l-0.9-0.5l-0.9-0.4l-0.9-0.4l-0.9-0.4l-0.9-0.3l-1-0.3l-1-0.3l-1-0.2l-1-0.2l-1-0.1l-1.1-0.1
	l-1,0l-1.1,0l-1.1,0l-1,0l-1,0.1l-1,0.1l-1,0.2l-1,0.2l-1,0.3l-1,0.3l-0.9,0.3l-0.9,0.4l-0.9,0.4l-0.9,0.4l-0.9,0.5l-0.9,0.5
	l-0.8,0.5l-0.8,0.6l-0.8,0.6l-0.8,0.6l-0.7,0.6l-0.7,0.7L10,47.8l-0.6,0.7l-0.6,0.8l-0.6,0.8l-0.6,0.8l-0.5,0.8l-0.5,0.9l-0.5,0.9
	l-0.4,0.9l-0.4,0.9l-0.4,0.9l-0.3,0.9l-0.3,1L4,59l-0.2,1l-0.2,1l-0.1,1l-0.1,1l0,1l0,1.1l0,1.1l0,1l0.1,1l0.1,1l0.2,1l0.2,1l0.3,1
	l0.3,1L4.9,74l0.4,0.9l0.4,0.9l0.4,0.9l0.5,0.9l0.5,0.9l0.5,0.8l0.6,0.8l0.6,0.8l0.6,0.8l0.6,0.7l0.7,0.7l0.7,0.7l0.7,0.6l0.8,0.6
	l0.8,0.6l0.8,0.6l0.8,0.5l0.9,0.5l0.9,0.5l0.9,0.4l0.9,0.4l0.9,0.4l0.9,0.4l1,0.3l1,0.3l1,0.2l1,0.2l1,0.1l1,0.1l1,0l1.1,0l1.1,0
	l1,0l1-0.1l1-0.1l0,0l-5.1,5.1l0.4,0.4L59,64.5L58.6,64.2z M24.6,73.6h-7.1v-2.8h1.9v-6.7c0-1.1-0.4-1.8-1.5-1.8
	c-1.2,0-2.5,0.8-3.5,1.6v6.9h1.9v2.8H9.1v-2.8h1.9v-8.1H9.1v-2.8h5.1v1.7c1.2-1.1,2.8-2.1,4.6-2.1c2.3,0,3.7,1.4,3.7,4.3v7h1.9
	L24.6,73.6L24.6,73.6z M37.8,67.8h-8.5c0.3,2.2,1.5,3.4,3.8,3.4c1.7,0,3.1-0.7,4-1.3v2.8c-1,0.6-2.5,1.2-4.5,1.2
	c-4.4,0-6.6-3.1-6.6-7.2c0-4.2,2.2-7.2,6.2-7.2c4,0,5.7,3.1,5.7,6.8C37.9,66.8,37.8,67.3,37.8,67.8z M47.9,73.4
	c-0.8,0.2-1.8,0.5-3,0.5c-3.1,0-3.9-1.6-3.9-4.1v-7.1h-2.2v-2.8H41v-3.5h3.3v3.5h3.4v2.8h-3.4v6.9c0,1.3,0.7,1.6,1.7,1.6
	c0.8,0,1.4-0.1,2-0.3L47.9,73.4L47.9,73.4z"/>
</svg>
